<?xml version="1.0" encoding="UTF-8"?>
<svg width="2011px" height="860px" viewBox="0 0 2011 860" version="1.1" xmlns="http://www.w3.org/2000/svg" xmlns:xlink="http://www.w3.org/1999/xlink">
    <!-- Generator: Sketch 61.2 (89653) - https://sketch.com -->
    <title>Group 13</title>
    <desc>Created with Sketch.</desc>
    <defs>
        <linearGradient x1="-18.230594%" y1="49.5941223%" x2="71.5866448%" y2="50.1336709%" id="linearGradient-1">
            <stop stop-color="#FFFFFF" offset="0%"></stop>
            <stop stop-color="#FFFFFF" stop-opacity="0" offset="100%"></stop>
        </linearGradient>
        <linearGradient x1="-52.1328116%" y1="49.9910488%" x2="101.778841%" y2="49.9910488%" id="linearGradient-2">
            <stop stop-color="#B1D0EF" offset="0%"></stop>
            <stop stop-color="#B1D0EF" stop-opacity="0" offset="100%"></stop>
        </linearGradient>
        <linearGradient x1="-52.5809027%" y1="54.9555116%" x2="37.7844072%" y2="50.5858733%" id="linearGradient-3">
            <stop stop-color="#FFFFFF" offset="0%"></stop>
            <stop stop-color="#FFFFFF" stop-opacity="0" offset="100%"></stop>
        </linearGradient>
        <linearGradient x1="-41.581085%" y1="50.4980703%" x2="80.2631798%" y2="49.8351335%" id="linearGradient-4">
            <stop stop-color="#B1D0EF" offset="0%"></stop>
            <stop stop-color="#B1D0EF" stop-opacity="0" offset="100%"></stop>
        </linearGradient>
        <linearGradient x1="111.365077%" y1="47.8491148%" x2="12.339974%" y2="50.3234693%" id="linearGradient-5">
            <stop stop-color="#B1D0EF" offset="0%"></stop>
            <stop stop-color="#B1D0EF" stop-opacity="0" offset="100%"></stop>
        </linearGradient>
        <linearGradient x1="0.0018151389%" y1="49.9981691%" x2="100.000655%" y2="49.9981691%" id="linearGradient-6">
            <stop stop-color="#FFFFFF" offset="0%"></stop>
            <stop stop-color="#FFFFFF" stop-opacity="0" offset="100%"></stop>
        </linearGradient>
        <linearGradient x1="-41.170449%" y1="75.0929778%" x2="32.6755955%" y2="55.1910113%" id="linearGradient-7">
            <stop stop-color="#FFFFFF" offset="0%"></stop>
            <stop stop-color="#FFFFFF" stop-opacity="0" offset="100%"></stop>
        </linearGradient>
        <path d="M13.4065626,127.148183 C13.4065626,127.148183 -0.396036692,65.4614998 0.00873161612,55.7893718 C0.413499924,46.1172437 9.27792587,0 9.27792587,0 L62.6263889,7.29439655 C62.6263889,7.29439655 59.7255493,40.7572728 59.320781,71.170742 C58.9160127,101.584211 53.9913316,137.948726 53.9913316,137.948726 L53.910378,138.015893 L53.910378,140.702596 C53.910378,140.702596 61.6009758,159.38861 52.304797,158.945304 C46.6650253,158.676634 47.4745619,140.702596 47.4745619,140.702596 L47.5825001,137.599455 C45.3292899,131.554375 38.1379062,68.8601781 38.1379062,64.8435583 C38.1379062,61.7538507 35.8037423,35.1420651 34.6838833,22.5817322 C34.583521,21.9632416 34.0854406,21.4847853 33.4610483,21.4070762 C32.836656,21.3293671 32.2356121,21.6710313 31.985428,22.2458944 C27.7218684,34.5778577 19.9233324,54.9967946 19.9233324,59.9671937 C19.9233324,66.4421461 19.7884096,128.558702 19.7884096,128.558702 C19.814221,129.760194 19.363384,130.923404 18.5336279,131.796178 C15.7407265,134.75155 6.17470218,141.804144 3.16592442,138.297997 C-0.0452374916,134.630649 13.4065626,127.148183 13.4065626,127.148183 Z" id="path-8"></path>
        <linearGradient x1="38.2161229%" y1="139.628611%" x2="52.1953498%" y2="54.6193733%" id="linearGradient-10">
            <stop stop-color="#B1D0EF" offset="9%"></stop>
            <stop stop-color="#B1D0EF" stop-opacity="0" offset="72%"></stop>
        </linearGradient>
        <linearGradient x1="-7.4837022%" y1="103.757559%" x2="50.8934922%" y2="42.0643012%" id="linearGradient-11">
            <stop stop-color="#FFFFFF" offset="0%"></stop>
            <stop stop-color="#FFFFFF" stop-opacity="0" offset="100%"></stop>
        </linearGradient>
        <linearGradient x1="92.284645%" y1="101.527495%" x2="46.6031374%" y2="50.5770536%" id="linearGradient-12">
            <stop stop-color="#B1D0EF" offset="9%"></stop>
            <stop stop-color="#B1D0EF" stop-opacity="0" offset="72%"></stop>
        </linearGradient>
        <path d="M41.1277778,0 L16.6730259,139.353738 C16.5910876,139.788628 16.2170728,140.107238 15.775235,140.118533 L3.58135878,140.252708 C3.15212743,140.252708 2.80416667,139.90429 2.80416667,139.474495 L3.47415987,1.6369301 L41.1277778,0 Z" id="path-13"></path>
        <linearGradient x1="39.7020125%" y1="104.829828%" x2="53.4350661%" y2="17.8568204%" id="linearGradient-15">
            <stop stop-color="#FFFFFF" offset="0%"></stop>
            <stop stop-color="#FFFFFF" stop-opacity="0" offset="100%"></stop>
        </linearGradient>
        <linearGradient x1="77.3781992%" y1="67.4983814%" x2="74.1687069%" y2="-29.1274455%" id="linearGradient-16">
            <stop stop-color="#B1D0EF" offset="9%"></stop>
            <stop stop-color="#B1D0EF" stop-opacity="0" offset="72%"></stop>
        </linearGradient>
    </defs>
    <g id="MAIN-FLOW-v2" stroke="none" stroke-width="1" fill="none" fill-rule="evenodd">
        <g id="Group-13" transform="translate(1.000000, 0.000000)">
            <polygon id="Rectangle" fill="#63B4F5" points="1318 406 2010 798.60963 1982.7731 860 1326.94449 477.455651"></polygon>
            <polyline id="Line-Copy" stroke="#B8D9F4" stroke-width="2" stroke-linecap="round" stroke-linejoin="round" points="1070 553.070216 892.180761 655.942628 571.470213 469 9.50350909e-13 798"></polyline>
            <polyline id="Line-2" stroke="#F5EBDB" stroke-width="2" stroke-linecap="square" points="1424 409 1641.14425 537 1807 442.512023"></polyline>
            <polyline id="Line-2" stroke="#E3ECF4" stroke-width="2" stroke-linecap="square" points="1017.80714 36 884 114.404189 1146 266"></polyline>
            <path d="M1005.98576,26.8739973 C1004.67452,26.1159877 1004.66831,24.8857755 1005.98576,24.127766 L1031.04842,9.56404162 C1032.53945,8.81198613 1034.29897,8.81198613 1035.79001,9.56404162 L1061.01424,24.127766 C1062.32548,24.8857755 1062.33169,26.1159877 1061.01424,26.8739973 L1035.95158,41.4315084 C1034.46416,42.1894972 1032.70363,42.1894972 1031.21621,41.4315084 L1005.99197,26.8739973 M1062.28948,23.596842 L1037.04226,8.99107955 C1034.44889,7.66964015 1031.38161,7.66964015 1028.78824,8.99107955 L1003.70274,23.6030758 C1001.4262,24.9246386 1001.43864,27.0752951 1003.70274,28.3968579 L1028.95618,43.0088541 C1031.55172,44.330382 1034.62088,44.330382 1037.21642,43.0088541 L1062.30192,28.3968579 C1064.57224,27.0752951 1064.5598,24.9246386 1062.30192,23.596842" id="Shape" fill="#E4EDF9" fill-rule="nonzero"></path>
            <polygon id="Path" fill="#E4EDF9" fill-rule="nonzero" points="1017 25.6933996 1017.05687 8 1033 17.3066004 1032.94945 35"></polygon>
            <polygon id="Path" fill="#F3F8FF" fill-rule="nonzero" points="1017 8.11585366 1031.27384 0 1047 8.88414634 1032.72616 17"></polygon>
            <polygon id="Path" fill="#B8D9F4" fill-rule="nonzero" points="1033.04874 17.4384297 1047 9 1046.95126 26.5615703 1033 35"></polygon>
            <g id="illustration" transform="translate(1266.500000, 314.000000) scale(-1, 1) translate(-1266.500000, -314.000000) translate(930.000000, 55.000000)">
                <g id="Group-26">
                    <path d="M521.761078,417.647258 C520.012984,416.861011 518.817763,415.190646 518.629907,413.271336 C518.793082,411.36188 519.971382,409.691789 521.707782,408.908836 L586.756204,370.827572 C591.460103,368.410777 597.028633,368.410777 601.732531,370.827572 L667.207326,408.908836 C669.285891,410.116913 670.325174,411.687413 670.325174,413.271336 C670.170402,415.183889 668.989365,416.85786 667.247299,417.633835 L602.198876,455.728522 C597.499633,458.145142 591.935116,458.145142 587.235873,455.728522 L521.761078,417.647258 M669.086029,407.808144 L603.611234,369.72688 C597.721661,366.707165 590.75375,366.707165 584.864177,369.72688 L519.815755,407.808144 C514.659315,410.828336 514.685963,415.727758 519.882375,418.74795 L585.35717,456.829215 C591.24209,459.848746 598.205984,459.848746 604.090903,456.829215 L669.15265,418.74795 C674.295766,415.727758 674.269117,410.828336 669.15265,407.808144" id="Shape" fill="#B8D9F4" fill-rule="nonzero"></path>
                    <polygon id="Path" fill="#E4EDF9" fill-rule="nonzero" points="551.486111 411.261914 551.62034 366.527076 592.613889 390.048555 592.47966 434.783394"></polygon>
                    <polygon id="Path" fill="#F3F8FF" fill-rule="nonzero" points="551.486111 365.516126 588.837784 344.086643 630.002778 367.538026 592.63763 388.967509"></polygon>
                    <polygon id="Path" fill="#B8D9F4" fill-rule="nonzero" points="592.748236 389.941894 630.002778 368.397112 629.86843 413.238611 592.613889 434.783394"></polygon>
                    <line x1="552.420833" y1="388.032491" x2="428.102778" y2="314.166065" id="Path" stroke="#B8D9F4" stroke-width="0.9975" stroke-linecap="round"></line>
                    <path d="M563.288055,466.957483 C568.719083,470.111623 568.759214,475.211935 563.288055,478.352653 L499.346394,515.638615 C493.181414,518.787128 485.887437,518.787128 479.722457,515.638615 L415.366112,478.352653 C409.935084,475.198513 409.894953,470.098201 415.366112,466.944061 L479.307773,429.658098 C485.474833,426.518299 492.76465,426.518299 498.931709,429.658098 L563.288055,466.957483 Z" id="Path" fill="#FFFFFF" fill-rule="nonzero"></path>
                    <path d="M415.299065,473.808179 L479.262714,436.126946 C485.431895,432.953862 492.724219,432.953862 498.893399,436.126946 L563.271876,473.808179 C564.245251,474.365311 565.122167,475.080085 565.86789,475.924188 C568.544193,472.858688 567.647632,469.020031 563.271876,466.429277 L498.893399,428.748044 C492.724219,425.57496 485.431895,425.57496 479.262714,428.748044 L415.299065,466.429277 C410.976835,468.979339 410.147181,472.790867 412.769958,475.842803 C413.498159,475.029619 414.352427,474.342375 415.299065,473.808179 L415.299065,473.808179 Z" id="Path" fill="#B8D9F4" fill-rule="nonzero"></path>
                    <path d="M563.288055,466.957483 C568.719083,470.111623 568.759214,475.211935 563.288055,478.352653 L499.346394,515.638615 C493.181414,518.787128 485.887437,518.787128 479.722457,515.638615 L415.366112,478.352653 C409.935084,475.198513 409.894953,470.098201 415.366112,466.944061 L479.307773,429.658098 C485.474833,426.518299 492.76465,426.518299 498.931709,429.658098 L563.288055,466.957483 Z" id="Path" fill="url(#linearGradient-1)" fill-rule="nonzero"></path>
                    <path d="M143.034123,210.110927 L95.5446932,182.192467 L91.2750753,179.679127 C88.4534404,178.224888 85.1144008,178.224888 82.2927659,179.679127 L15.8988644,218.466086 C13.4015407,219.919748 13.3881142,222.283647 15.8988644,223.737308 L16.4090703,224.036192 L20.1550559,226.237063 L20.1550559,226.237063 L67.6444855,254.169108 C70.470809,255.623534 73.8138979,255.623534 76.6402214,254.169108 L143.034123,215.382149 C145.491167,213.928487 145.504594,211.564588 143.034123,210.110927 Z" id="Path" fill="url(#linearGradient-2)" fill-rule="nonzero"></path>
                    <line x1="223.398611" y1="280.505415" x2="99.0805556" y2="206.638989" id="Path" stroke="#B8D9F4" stroke-width="0.9975" stroke-linecap="round"></line>
                    <path d="M2.83092595,197.545336 L65.0730196,233.391206 C68.5032038,235.122306 72.560623,235.122306 75.9908073,233.391206 L156.629908,187.203138 C159.653707,185.46395 159.667087,182.662661 156.629908,180.923473 L98.9502726,147.732852 L7.36662452,200.200585 L2.80416667,197.545336" id="Path" fill="#F3F8FF" fill-rule="nonzero"></path>
                    <path d="M82.9929106,145.249939 L2.27362064,190.907276 C-0.751177822,192.62648 -0.764561886,195.39558 2.27362064,197.114784 L2.90267165,197.469124 L7.46663747,200.093863 L99.0805556,148.229017 L93.9009228,145.276186 C90.4696048,143.564978 86.4108446,143.564978 82.9795266,145.276186" id="Path" fill="#E4EDF9" fill-rule="nonzero"></path>
                    <polyline id="Path" fill="#FFFFFF" fill-rule="nonzero" points="99.6950882 166.433213 43.9319444 198.27924 53.5858543 203.833935 109.3625 171.987908 99.6950882 166.433213"></polyline>
                    <polyline id="Path" fill="#FFFFFF" fill-rule="nonzero" points="114.664146 175.783394 58.8875 207.629421 68.5414099 213.184116 124.318056 181.338088 114.664146 175.783394"></polyline>
                    <path d="M157.577675,181.094534 L99.5900868,147.407356 L94.3845204,144.37551 C90.9360224,142.618512 86.8569406,142.618512 83.4084426,144.37551 L2.28500429,191.187213 C-0.754938847,192.952421 -0.768389922,195.795618 2.28500429,197.560827 L2.91720485,197.924648 L65.4916096,234.3068 C68.9401076,236.063798 73.0191894,236.063798 76.4676874,234.3068 L157.537321,187.427724 C160.590716,185.70294 160.604167,182.859742 157.577675,181.094534 Z" id="Path" fill="url(#linearGradient-3)" fill-rule="nonzero" opacity="0.8"></path>
                    <path d="M497.345953,389.649182 C509.653986,396.759068 509.71743,408.291473 497.493988,415.401359 L352.715986,499.577333 C340.492544,506.687219 320.592442,506.687219 308.305556,499.577333 L162.575902,415.401359 C150.267869,408.291473 150.183277,396.759068 162.427867,389.649182 L307.205869,305.473209 C319.429311,298.363323 339.308266,298.363323 351.616299,305.473209 L497.345953,389.649182 Z" id="Path" fill="url(#linearGradient-4)" fill-rule="nonzero"></path>
                    <path d="M552.187215,284.331458 C568.620133,293.841495 568.713578,309.250162 552.387454,318.760199 L358.956917,431.395953 C342.617444,440.90599 316.052449,440.892614 299.619531,431.395953 L104.920817,318.760199 C88.4878981,309.250162 88.3944534,293.841495 104.733927,284.318083 L298.164463,171.695705 C314.490588,162.185668 341.055582,162.185668 357.488501,171.695705 L552.187215,284.331458 Z" id="Path" fill="#B8D9F4" fill-rule="nonzero"></path>
                    <path d="M564.56417,280.531138 C564.56417,280.744636 564.56417,280.958134 564.56417,281.158288 C564.56417,281.358442 564.56417,281.531909 564.56417,281.71872 C564.56417,281.905531 564.497401,282.132372 564.45734,282.34587 C564.417279,282.559368 564.390572,282.719492 564.35051,282.892959 C564.310449,283.066426 564.257035,283.306611 564.20362,283.506765 L564.043375,284.067197 L563.84307,284.66766 C563.776301,284.854471 563.709533,285.027938 563.629411,285.214749 C563.549289,285.401559 563.455813,285.641745 563.362337,285.841899 L563.12197,286.375644 C563.015141,286.589142 562.908311,286.80264 562.788128,287.002794 L562.5077,287.509851 L562.053674,288.257094 C561.946845,288.403874 561.853369,288.563997 561.759893,288.710777 C561.666417,288.857557 561.372636,289.244522 561.158976,289.511395 L560.905256,289.871672 C560.55806,290.298668 560.19751,290.725664 559.810253,291.206034 L559.503118,291.526281 L558.555005,292.473678 L558.100979,292.900674 L557.486709,293.421075 L556.9125,293.901446 L556.258169,294.421847 L555.630545,294.888874 L554.922799,295.382588 L554.255114,295.836271 L553.493953,296.316641 C553.173465,296.516795 552.852976,296.71695 552.519133,296.90376 L359.024039,409.270391 C358.115988,409.804135 357.167875,410.284506 356.193055,410.764876 L355.418541,411.125154 C354.55055,411.525463 353.655853,411.912428 352.747801,412.272705 L352.387251,412.419485 C351.412431,412.793107 350.39755,413.126697 349.369315,413.446944 C348.661569,413.673785 347.94047,413.860596 347.21937,414.060751 C346.49827,414.260905 346.124366,414.367654 345.563511,414.50109 C345.002656,414.634526 344.027836,414.848024 343.239968,415.008148 C342.679112,415.114897 342.118257,415.248333 341.557402,415.341738 L340.836302,415.461831 C339.874836,415.621954 338.913369,415.75539 337.938549,415.875483 L337.083912,415.968888 C336.523057,415.968888 335.962202,416.062294 335.401346,416.115668 C334.453234,416.19573 333.505121,416.262448 332.557009,416.302479 L330.740906,416.302479 L328.444069,416.302479 C327.803092,416.302479 327.1087,416.302479 326.521137,416.302479 C325.933574,416.302479 325.105645,416.302479 324.397899,416.19573 C323.690153,416.088981 323.062529,416.088981 322.448259,416.035606 L320.365082,415.795421 C319.724104,415.715359 319.109834,415.635298 318.48221,415.528549 C317.854586,415.4218 316.99995,415.288364 316.252143,415.141584 L314.516162,414.79465 C313.634818,414.607839 312.766827,414.380997 311.91219,414.154156 C311.351335,414.007376 310.79048,413.87394 310.242978,413.713816 L309.361634,413.4336 C308.493644,413.166728 307.639007,412.873168 306.797724,412.566265 L306.076624,412.299393 C305.315463,412.005833 304.58101,411.672242 303.846556,411.351995 L302.764907,410.884969 C301.696611,410.377911 300.668376,409.844166 299.680202,409.270391 L104.916507,296.917104 C96.6505676,292.140088 92.510921,285.868586 92.5375,279.570397 L92.5375,298.091343 C92.5375,304.349501 96.6505676,310.621003 104.929861,315.43805 L299.680202,427.80468 C300.668376,428.378456 301.709965,428.9122 302.764907,429.405914 C303.112103,429.579381 303.486007,429.726161 303.846556,429.886285 C304.47418,430.166501 305.08845,430.446717 305.742782,430.700246 L306.076624,430.833682 L306.811078,431.100554 C307.639007,431.407457 308.493644,431.687673 309.361634,431.96789 L310.242978,432.234762 L310.830541,432.421573 C311.191091,432.528322 311.551641,432.59504 311.91219,432.688445 C312.780181,432.915287 313.634818,433.128785 314.516162,433.328939 L315.210554,433.502406 L316.252143,433.675873 C316.99995,433.822653 317.734403,433.942745 318.48221,434.062838 C318.789345,434.062838 319.069773,434.182931 319.376908,434.222961 L320.365082,434.32971 L322.448259,434.569896 L323.46314,434.676645 L324.397899,434.676645 L326.521137,434.783394 L327.589433,434.783394 L328.444069,434.783394 C329.20523,434.783394 329.979745,434.783394 330.740906,434.783394 L331.889324,434.783394 L332.570362,434.783394 C333.518475,434.783394 334.453234,434.663301 335.401346,434.583239 C335.77525,434.583239 336.162507,434.583239 336.549765,434.516521 L337.083912,434.516521 L337.938549,434.409772 C338.913369,434.303023 339.874836,434.156243 340.836302,434.009463 L341.557402,433.889371 L341.891244,433.889371 C342.358623,433.809309 342.799296,433.689217 343.226614,433.595811 C344.001128,433.449031 344.775643,433.288908 345.536804,433.102097 C346.297965,432.915287 346.645161,432.808538 347.192662,432.661758 L349.355962,432.047951 L349.809987,431.914515 C350.677978,431.634299 351.532614,431.327396 352.360544,431.007149 L352.721094,430.860369 C353.642499,430.513435 354.537197,430.12647 355.391833,429.712818 C355.656124,429.606323 355.91465,429.486065 356.166348,429.35254 C357.141168,428.885513 358.089281,428.405143 358.997332,427.871398 L552.492426,315.504768 L553.01322,315.211208 L553.467246,314.917648 L554.228407,314.437278 L554.896092,313.983595 L555.603838,313.476537 L556.231462,313.009511 C556.458475,312.849387 556.672134,312.67592 556.885793,312.502453 L557.460002,312.022083 L558.074272,311.488338 L558.314639,311.27484 L558.528298,311.074686 L559.47641,310.127289 L559.783546,309.807042 C560.170803,309.380046 560.531353,308.966394 560.878549,308.47268 L560.878549,308.47268 L561.092208,308.165776 C561.305867,307.898904 561.506173,307.632032 561.693124,307.365159 C561.783323,307.209072 561.881375,307.05765 561.986906,306.911476 L562.440932,306.164233 C562.485852,306.100552 562.526022,306.033653 562.561115,305.964079 C562.619747,305.864583 562.673232,305.762148 562.721359,305.657176 L563.055202,305.030025 L563.295568,304.496281 L563.562642,303.86913 L563.682826,303.575571 C563.682826,303.495509 563.682826,303.402104 563.776301,303.322042 L563.976607,302.721579 L564.136851,302.161147 C564.136851,301.960993 564.230327,301.760838 564.283742,301.54734 L564.363864,301.21375 L564.363864,301.000252 C564.363864,300.786754 564.430633,300.573256 564.45734,300.373102 C564.484047,300.172948 564.45734,299.99948 564.45734,299.81267 C564.45734,299.625859 564.45734,299.399018 564.45734,299.18552 C564.450726,299.061067 564.450726,298.936351 564.45734,298.811898 L564.45734,298.45162 L564.45734,279.930675 C564.590877,280.010737 564.577523,280.264265 564.56417,280.531138 Z" id="Path" fill="#F1F3F7" fill-rule="nonzero"></path>
                    <path d="M564.56417,280.531138 C564.56417,280.744636 564.56417,280.958134 564.56417,281.158288 C564.56417,281.358442 564.56417,281.531909 564.56417,281.71872 C564.56417,281.905531 564.497401,282.132372 564.45734,282.34587 C564.417279,282.559368 564.390572,282.719492 564.35051,282.892959 C564.310449,283.066426 564.257035,283.306611 564.20362,283.506765 L564.043375,284.067197 L563.84307,284.66766 C563.776301,284.854471 563.709533,285.027938 563.629411,285.214749 C563.549289,285.401559 563.455813,285.641745 563.362337,285.841899 L563.12197,286.375644 C563.015141,286.589142 562.908311,286.80264 562.788128,287.002794 L562.5077,287.509851 L562.053674,288.257094 C561.946845,288.403874 561.853369,288.563997 561.759893,288.710777 C561.666417,288.857557 561.372636,289.244522 561.158976,289.511395 L560.905256,289.871672 C560.55806,290.298668 560.19751,290.725664 559.810253,291.206034 L559.503118,291.526281 L558.555005,292.473678 L558.100979,292.900674 L557.486709,293.421075 L556.9125,293.901446 L556.258169,294.421847 L555.630545,294.888874 L554.922799,295.382588 L554.255114,295.836271 L553.493953,296.316641 C553.173465,296.516795 552.852976,296.71695 552.519133,296.90376 L359.024039,409.270391 C358.115988,409.804135 357.167875,410.284506 356.193055,410.764876 L355.418541,411.125154 C354.55055,411.525463 353.655853,411.912428 352.747801,412.272705 L352.387251,412.419485 C351.412431,412.793107 350.39755,413.126697 349.369315,413.446944 C348.661569,413.673785 347.94047,413.860596 347.21937,414.060751 C346.49827,414.260905 346.124366,414.367654 345.563511,414.50109 C345.002656,414.634526 344.027836,414.848024 343.239968,415.008148 C342.679112,415.114897 342.118257,415.248333 341.557402,415.341738 L340.836302,415.461831 C339.874836,415.621954 338.913369,415.75539 337.938549,415.875483 L337.083912,415.968888 C336.523057,415.968888 335.962202,416.062294 335.401346,416.115668 C334.453234,416.19573 333.505121,416.262448 332.557009,416.302479 L330.740906,416.302479 L328.444069,416.302479 C327.803092,416.302479 327.1087,416.302479 326.521137,416.302479 C325.933574,416.302479 325.105645,416.302479 324.397899,416.19573 C323.690153,416.088981 323.062529,416.088981 322.448259,416.035606 L320.365082,415.795421 C319.724104,415.715359 319.109834,415.635298 318.48221,415.528549 C317.854586,415.4218 316.99995,415.288364 316.252143,415.141584 L314.516162,414.79465 C313.634818,414.607839 312.766827,414.380997 311.91219,414.154156 C311.351335,414.007376 310.79048,413.87394 310.242978,413.713816 L309.361634,413.4336 C308.493644,413.166728 307.639007,412.873168 306.797724,412.566265 L306.076624,412.299393 C305.315463,412.005833 304.58101,411.672242 303.846556,411.351995 L302.764907,410.884969 C301.696611,410.377911 300.668376,409.844166 299.680202,409.270391 L104.916507,296.917104 C96.6505676,292.140088 92.510921,285.868586 92.5375,279.570397 L92.5375,298.091343 C92.5375,304.349501 96.6505676,310.621003 104.929861,315.43805 L299.680202,427.80468 C300.668376,428.378456 301.709965,428.9122 302.764907,429.405914 C303.112103,429.579381 303.486007,429.726161 303.846556,429.886285 C304.47418,430.166501 305.08845,430.446717 305.742782,430.700246 L306.076624,430.833682 L306.811078,431.100554 C307.639007,431.407457 308.493644,431.687673 309.361634,431.96789 L310.242978,432.234762 L310.830541,432.421573 C311.191091,432.528322 311.551641,432.59504 311.91219,432.688445 C312.780181,432.915287 313.634818,433.128785 314.516162,433.328939 L315.210554,433.502406 L316.252143,433.675873 C316.99995,433.822653 317.734403,433.942745 318.48221,434.062838 C318.789345,434.062838 319.069773,434.182931 319.376908,434.222961 L320.365082,434.32971 L322.448259,434.569896 L323.46314,434.676645 L324.397899,434.676645 L326.521137,434.783394 L327.589433,434.783394 L328.444069,434.783394 C329.20523,434.783394 329.979745,434.783394 330.740906,434.783394 L331.889324,434.783394 L332.570362,434.783394 C333.518475,434.783394 334.453234,434.663301 335.401346,434.583239 C335.77525,434.583239 336.162507,434.583239 336.549765,434.516521 L337.083912,434.516521 L337.938549,434.409772 C338.913369,434.303023 339.874836,434.156243 340.836302,434.009463 L341.557402,433.889371 L341.891244,433.889371 C342.358623,433.809309 342.799296,433.689217 343.226614,433.595811 C344.001128,433.449031 344.775643,433.288908 345.536804,433.102097 C346.297965,432.915287 346.645161,432.808538 347.192662,432.661758 L349.355962,432.047951 L349.809987,431.914515 C350.677978,431.634299 351.532614,431.327396 352.360544,431.007149 L352.721094,430.860369 C353.642499,430.513435 354.537197,430.12647 355.391833,429.712818 C355.656124,429.606323 355.91465,429.486065 356.166348,429.35254 C357.141168,428.885513 358.089281,428.405143 358.997332,427.871398 L552.492426,315.504768 L553.01322,315.211208 L553.467246,314.917648 L554.228407,314.437278 L554.896092,313.983595 L555.603838,313.476537 L556.231462,313.009511 C556.458475,312.849387 556.672134,312.67592 556.885793,312.502453 L557.460002,312.022083 L558.074272,311.488338 L558.314639,311.27484 L558.528298,311.074686 L559.47641,310.127289 L559.783546,309.807042 C560.170803,309.380046 560.531353,308.966394 560.878549,308.47268 L560.878549,308.47268 L561.092208,308.165776 C561.305867,307.898904 561.506173,307.632032 561.693124,307.365159 C561.783323,307.209072 561.881375,307.05765 561.986906,306.911476 L562.440932,306.164233 C562.485852,306.100552 562.526022,306.033653 562.561115,305.964079 C562.619747,305.864583 562.673232,305.762148 562.721359,305.657176 L563.055202,305.030025 L563.295568,304.496281 L563.562642,303.86913 L563.682826,303.575571 C563.682826,303.495509 563.682826,303.402104 563.776301,303.322042 L563.976607,302.721579 L564.136851,302.161147 C564.136851,301.960993 564.230327,301.760838 564.283742,301.54734 L564.363864,301.21375 L564.363864,301.000252 C564.363864,300.786754 564.430633,300.573256 564.45734,300.373102 C564.484047,300.172948 564.45734,299.99948 564.45734,299.81267 C564.45734,299.625859 564.45734,299.399018 564.45734,299.18552 C564.450726,299.061067 564.450726,298.936351 564.45734,298.811898 L564.45734,298.45162 L564.45734,279.930675 C564.590877,280.010737 564.577523,280.264265 564.56417,280.531138 Z" id="Path" fill="url(#linearGradient-5)" fill-rule="nonzero"></path>
                    <path d="M552.187215,266.566115 C568.620133,276.076152 568.713578,291.48482 552.387454,300.994856 L358.956917,413.63061 C342.617444,423.140647 316.052449,423.127271 299.619531,413.63061 L104.920817,300.994856 C88.4878981,291.48482 88.3944534,276.076152 104.733927,266.55274 L298.164463,153.930362 C314.490588,144.420325 341.055582,144.420325 357.488501,153.930362 L552.187215,266.566115 Z" id="Path" fill="#FFFFFF" fill-rule="nonzero"></path>
                    <path d="M552.187215,261.883186 C568.620133,271.393397 568.713578,286.815723 552.387454,296.312558 L358.956917,408.950374 C342.617444,418.460585 316.052449,418.460585 299.619531,408.950374 L104.920817,296.325934 C88.4878981,286.815723 88.3944534,271.393397 104.733927,261.883186 L298.164463,149.24537 C314.490588,139.748535 341.055582,139.748535 357.488501,149.24537 L552.187215,261.883186 Z" id="Path" fill="#F3F8FF" fill-rule="nonzero"></path>
                    <path d="M552.187215,261.883186 C568.620133,271.393397 568.713578,286.815723 552.387454,296.312558 L358.956917,408.950374 C342.617444,418.460585 316.052449,418.460585 299.619531,408.950374 L104.920817,296.325934 C88.4878981,286.815723 88.3944534,271.393397 104.733927,261.883186 L298.164463,149.24537 C314.490588,139.748535 341.055582,139.748535 357.488501,149.24537 L552.187215,261.883186 Z" id="Path" fill="url(#linearGradient-6)" fill-rule="nonzero"></path>
                    <path d="M398.422934,0.0027132092 C391.563517,0.268168654 385.381531,4.18835599 382.251404,10.2575784 C380.734143,13.0696551 379.553664,16.0486 378.734096,19.1335256 C375.634553,30.579883 340.596238,40.7945855 351.781546,66.9137003 L360.81065,62.2816071 L353.978179,71.2111046 C354.126418,71.4654681 354.261181,71.7198316 354.422896,71.9875827 C355.411084,73.600779 356.552816,75.1160541 357.832393,76.5125754 L361.080176,74.8391313 L358.937448,77.6505173 C372.939298,91.0380698 395.768108,81.4659698 410.4842,69.4707228 C426.467062,56.4981845 432.881769,-0.452463574 398.422934,0.0027132092 Z" id="Path" fill="#1659A8" fill-rule="nonzero"></path>
                    <path d="M398.422934,0.0027132092 C391.563517,0.268168654 385.381531,4.18835599 382.251404,10.2575784 C380.734143,13.0696551 379.553664,16.0486 378.734096,19.1335256 C375.634553,30.579883 340.596238,40.7945855 351.781546,66.9137003 L360.81065,62.2816071 L353.978179,71.2111046 C354.126418,71.4654681 354.261181,71.7198316 354.422896,71.9875827 C355.411084,73.600779 356.552816,75.1160541 357.832393,76.5125754 L361.080176,74.8391313 L358.937448,77.6505173 C372.939298,91.0380698 395.768108,81.4659698 410.4842,69.4707228 C426.467062,56.4981845 432.881769,-0.452463574 398.422934,0.0027132092 Z" id="Path" fill="url(#linearGradient-7)" fill-rule="nonzero" opacity="0.8"></path>
                    <path d="M337.170781,75.5978275 C334.638113,76.1104305 331.948785,74.0863059 329.742492,70.3403611 C327.536198,66.5944163 323.110557,72.66679 324.677155,79.0677553 C325.154768,81.597814 326.612115,83.8327983 328.727963,85.2800658 C330.843811,86.7273333 333.44446,87.2680708 335.956667,86.7830873 C340.552023,85.9156053 337.170781,75.5978275 337.170781,75.5978275 Z" id="Path" fill="#F99C80" fill-rule="nonzero"></path>
                    <path d="M384.280866,40.5182556 C383.751475,40.1908568 383.102203,40.1164057 382.51163,40.31538 C381.921058,40.5143543 381.451385,40.9657979 381.231794,41.5455419 C378.397636,49.0700807 366.201351,81.5696845 366.201351,81.5696845 L336.744905,76.2331322 L333.695833,86.0123643 C333.695833,86.0123643 362.050853,102.662408 371.74878,98.4198486 C380.587057,94.5775309 401.930556,51.2714085 401.930556,51.2714085 L384.280866,40.5182556 Z" id="Path" fill="#F99C80" fill-rule="nonzero"></path>
                    <path d="M334.210656,79.3592269 C334.210656,79.3592269 332.729294,69.8719924 334.792228,69.2121384 C336.514998,68.6549284 338.369444,79.4765343 338.369444,79.4765343 L334.210656,79.3592269 Z" id="Path" fill="#F99C80" fill-rule="nonzero"></path>
                    <path d="M383.243416,39.2707581 L371.192083,54.1564791 C368.235147,57.7856502 368.63699,62.9864205 372.119108,66.1543178 C375.879969,69.8315127 381.215259,71.5957772 386.528904,70.9193237 C399.725386,69.199721 383.243416,39.2707581 383.243416,39.2707581 Z" id="Path" fill="#328DEA" fill-rule="nonzero"></path>
                    <path d="M398.13473,271.248488 C406.737738,266.137387 420.648409,266.137387 429.197395,271.248488 C437.746381,276.35959 437.705864,284.651241 429.089351,289.762342 C420.472838,294.873443 406.562166,294.873443 398.026686,289.762342 C389.491206,284.651241 389.518217,276.35959 398.13473,271.248488" id="Path" fill="#E4EDF9" fill-rule="nonzero"></path>
                    <path d="M359.811119,250.678091 C368.414127,245.56699 382.324798,245.56699 390.873784,250.678091 C399.422769,255.789193 399.382253,264.080843 390.76574,269.191945 C382.149227,274.303046 368.238555,274.303046 359.703075,269.191945 C351.167595,264.080843 351.194606,255.803082 359.811119,250.678091" id="Path" fill="#E4EDF9" fill-rule="nonzero"></path>
                    <g id="Group-3" transform="translate(362.672222, 127.162455)">
                        <mask id="mask-9" fill="white">
                            <use xlink:href="#path-8"></use>
                        </mask>
                        <use id="Path" fill="#F99C80" fill-rule="nonzero" xlink:href="#path-8"></use>
                        <path d="M60.9476808,79.8268209 C60.9476808,79.8268209 50.8777156,87.1464662 37.6566048,79.8268209 C24.435494,72.5071756 37.6566048,182.32852 37.6566048,182.32852 L72.9083333,153.956562 L60.9476808,79.8268209 Z" id="Path" fill="#FEB512" fill-rule="nonzero" mask="url(#mask-9)"></path>
                        <path d="M20.327611,75.1184921 C20.327611,75.1184921 12.2174558,81.5333094 1.67425398,75.1184921 C-8.86894782,68.7036749 -7.40911988,161.758123 -7.40911988,161.758123 L29.9111111,140.098215 L20.327611,75.1184921 Z" id="Path" fill="#FEB512" fill-rule="nonzero" mask="url(#mask-9)"></path>
                    </g>
                    <path d="M423.502334,111.981675 L422.270464,111.847583 C422.85962,111.498945 423.462165,111.163716 424.06471,110.77485 C424.372677,110.573712 425.818786,68.9382407 425.135901,52.5924631 C425.009779,49.6663718 423.057655,47.1367716 420.261981,46.2767442 L389.733028,36.7294155 C388.185213,36.2474025 386.506963,36.431529 385.100075,37.2377124 C383.693187,38.0438957 382.684325,39.3995543 382.315028,40.9801223 L375.499573,107.154374 L375.499573,107.154374 C375.499573,107.154374 360.904591,168.112459 361.774934,168.836554 C365.127809,171.930824 368.768591,174.696773 372.647526,177.096602 L376.731443,166.208357 L380.293154,181.052307 C407.528194,192.63783 430.906944,175.876368 430.906944,175.876368 L423.502334,111.981675 Z" id="Path" fill="#328DEA" fill-rule="nonzero"></path>
                    <path d="M366.411111,264.187878 L366.411111,264.429069 C366.411111,266.814182 369.352256,269.788873 372.58098,269.212694 C377.156094,268.462321 383.352106,264.898052 383.234461,260.8246 C383.064528,254.915416 382.881523,255.263804 382.881523,255.263804 L366.411111,264.187878 Z" id="Path" fill="#1659A8" fill-rule="nonzero"></path>
                    <path d="M410.453462,274.895307 C410.453462,274.895307 408.974496,289.855596 416.842598,289.855596 C423.231733,289.855596 419.593475,276.311191 419.593475,276.311191 L410.453462,274.895307 Z" id="Path" fill="#1659A8" fill-rule="nonzero"></path>
                    <path d="M423.502334,111.981675 L422.270464,111.847583 C422.85962,111.498945 423.462165,111.163716 424.06471,110.77485 C424.372677,110.573712 425.818786,68.9382407 425.135901,52.5924631 C425.009779,49.6663718 423.057655,47.1367716 420.261981,46.2767442 L389.733028,36.7294155 C388.185213,36.2474025 386.506963,36.431529 385.100075,37.2377124 C383.693187,38.0438957 382.684325,39.3995543 382.315028,40.9801223 L375.499573,107.154374 L375.499573,107.154374 C375.499573,107.154374 360.904591,168.112459 361.774934,168.836554 C365.127809,171.930824 368.768591,174.696773 372.647526,177.096602 L376.731443,166.208357 L380.293154,181.052307 C407.528194,192.63783 430.906944,175.876368 430.906944,175.876368 L423.502334,111.981675 Z" id="Path" fill="url(#linearGradient-10)" fill-rule="nonzero" opacity="0.8"></path>
                    <path d="M396.619634,31.827239 L396.322222,38.804687 C396.322222,38.804687 397.030345,48.9608969 408.841835,43.0122597 C409.068434,42.8935507 409.408333,25.2454874 409.408333,25.2454874 L396.619634,31.827239 Z" id="Path" fill="#F99C80" fill-rule="nonzero"></path>
                    <path d="M406.121977,23.8716512 C404.298046,30.0957921 396.734094,34.8499763 392.026741,34.5851193 C386.206254,34.254048 385.696626,16.0451251 386.179431,13.2111546 C386.662237,10.3771841 388.271588,2.3122866 395.366145,2.82875786 C402.460703,3.34522913 413.283591,-0.720326733 406.121977,23.8716512 Z" id="Path" fill="#F99C80" fill-rule="nonzero"></path>
                    <path d="M406.121977,23.8716512 C404.298046,30.0957921 396.734094,34.8499763 392.026741,34.5851193 C386.206254,34.254048 385.696626,16.0451251 386.179431,13.2111546 C386.662237,10.3771841 388.271588,2.3122866 395.366145,2.82875786 C402.460703,3.34522913 413.283591,-0.720326733 406.121977,23.8716512 Z" id="Path" fill="url(#linearGradient-11)" fill-rule="nonzero" opacity="0.8"></path>
                    <path d="M411.225808,15.9111966 C411.225808,15.9111966 412.677067,1.56963264 400.241508,0.116816211 C390.721782,-1.00278544 384.264346,6.15466796 384.171146,11.7793334 C384.064631,19.7365023 411.225808,15.9111966 411.225808,15.9111966 Z" id="Path" fill="#1659A8" fill-rule="nonzero"></path>
                    <ellipse id="Oval" fill="#F99C80" fill-rule="nonzero" transform="translate(408.398043, 23.382626) rotate(-42.740000) translate(-408.398043, -23.382626) " cx="408.398043" cy="23.382626" rx="4.99075087" ry="3.58581285"></ellipse>
                    <path d="M396.279596,38.3357401 C396.279596,38.3357401 385.555248,47.9129053 391.656154,51.43928 C399.451049,55.9415887 407.538889,42.4867125 407.538889,42.4867125 L396.279596,38.3357401 Z" id="Path" fill="#F99C80" fill-rule="nonzero"></path>
                    <path d="M374.823611,106.592058 C389.339203,116.765524 407.368519,118.760502 423.429167,111.970354" id="Path" stroke="#FEB512" stroke-width="0.9975" stroke-linecap="round"></path>
                    <path d="M398.154392,126.369746 L432.055744,126.370779 C432.59928,126.370856 433.039898,126.811474 433.039974,127.355009 L433.041358,172.754231 C433.041435,173.29779 432.600807,173.738444 432.057248,173.738461 C432.057228,173.738461 432.057208,173.738461 432.057188,173.738401 L398.155836,173.737368 C397.612301,173.737291 397.171682,173.296673 397.171606,172.753138 L397.170222,127.353916 C397.170146,126.810357 397.610773,126.369702 398.154332,126.369686 C398.154352,126.369686 398.154372,126.369686 398.154392,126.369746 Z" id="Rectangle" fill="#FEB512" fill-rule="nonzero" transform="translate(415.105790, 150.054073) rotate(-75.240000) translate(-415.105790, -150.054073) "></path>
                    <polygon id="Rectangle" fill="#F3F8FF" fill-rule="nonzero" transform="translate(412.297276, 149.480712) rotate(14.760000) translate(-412.297276, -149.480712) " points="391.022393 136.202461 433.572969 136.201164 433.572159 162.758963 391.021584 162.76026"></polygon>
                    <path d="M390.170795,132.628837 L392.858469,132.628837 C393.383664,132.628808 393.809419,133.054563 393.809419,133.579758 C393.809419,133.579768 393.809419,133.579778 393.80939,133.579787 L393.808754,154.4495 C393.808709,154.974684 393.382959,155.400421 392.857775,155.40045 L390.1701,155.40045 C389.644905,155.400479 389.21915,154.974724 389.21915,154.449529 C389.21915,154.449519 389.21915,154.44951 389.219179,154.4495 L389.219816,133.579787 C389.219861,133.054604 389.645611,132.628866 390.170795,132.628837 Z" id="Rectangle" fill="#1659A8" fill-rule="nonzero" transform="translate(391.514285, 144.014644) rotate(14.760000) translate(-391.514285, -144.014644) "></path>
                    <polygon id="Rectangle" fill="#FFFFFF" fill-rule="nonzero" transform="translate(399.104338, 149.752311) rotate(-75.240000) translate(-399.104338, -149.752311) " points="393.806096 147.731667 404.402457 147.731989 404.40258 151.772956 393.806219 151.772633"></polygon>
                    <polygon id="Rectangle" fill="#FFFFFF" fill-rule="nonzero" transform="translate(407.780510, 148.121117) rotate(-75.240000) translate(-407.780510, -148.121117) " points="398.682563 146.100356 416.878334 146.100911 416.878458 150.141877 398.682686 150.141323"></polygon>
                    <polygon id="Rectangle" fill="#FFFFFF" fill-rule="nonzero" transform="translate(414.024849, 149.762926) rotate(-75.240000) translate(-414.024849, -149.762926) " points="404.926901 147.742165 423.122673 147.74272 423.122796 151.783686 404.927024 151.783132"></polygon>
                    <polygon id="Rectangle" fill="#FFFFFF" fill-rule="nonzero" transform="translate(429.781719, 147.445176) rotate(-75.240000) translate(-429.781719, -147.445176) " points="426.945258 145.424607 432.618057 145.424779 432.618181 149.465746 426.945381 149.465573"></polygon>
                    <path d="M385.034543,139.86119 L393.864844,139.861459 C394.265813,139.861471 394.650364,140.020784 394.9339,140.304351 C395.217437,140.587918 395.376733,140.97251 395.376745,141.373522 L395.376908,146.725796 L383.522898,146.725435 L383.522735,141.373161 C383.522735,140.538097 384.199569,139.86119 385.034543,139.86119 L385.034543,139.86119 Z" id="Path" stroke="#1659A8" stroke-width="0.9975" transform="translate(389.449821, 143.293493) rotate(-75.240000) translate(-389.449821, -143.293493) "></path>
                    <path d="M415.858236,130.159147 C415.858236,130.026106 415.858236,129.90637 415.952755,129.77333 C416.047274,129.64029 424.743028,96.3137354 424.743028,96.3137354 L412.2125,69.8387479 L424.594498,51.4259928 C424.594498,51.4259928 442.053521,86.7481495 443.025717,94.7305578 C443.727859,100.491196 432.925679,122.775419 426.822448,134.642599 L415.858236,130.159147 Z" id="Path" fill="#F99C80" fill-rule="nonzero"></path>
                    <path d="M421.877185,46.7509025 L408.473611,68.6924055 L417.748884,86.0216606 C417.748884,86.0216606 432.398991,86.0216606 435.522024,70.691935 C436.621117,65.4398377 421.877185,46.7509025 421.877185,46.7509025 Z" id="Path" fill="#328DEA" fill-rule="nonzero"></path>
                    <path d="M421.877185,46.7509025 L408.473611,68.6924055 L417.748884,86.0216606 C417.748884,86.0216606 432.398991,86.0216606 435.522024,70.691935 C436.621117,65.4398377 421.877185,46.7509025 421.877185,46.7509025 Z" id="Path" fill="url(#linearGradient-12)" fill-rule="nonzero" opacity="0.8"></path>
                    <ellipse id="Oval" fill="#F99C80" fill-rule="nonzero" cx="419.222917" cy="137.915162" rx="7.94513889" ry="7.94765343"></ellipse>
                    <polygon id="Rectangle" fill="#F99C80" fill-rule="nonzero" transform="translate(236.465534, 150.901611) rotate(1.700000) translate(-236.465534, -150.901611) " points="231.574876 145.1486 241.356234 145.148564 241.356192 156.654622 231.574834 156.654658"></polygon>
                    <path d="M246.253465,71.0804366 L232.366474,101.637908 C231.463371,103.63518 230.897413,105.775138 230.692712,107.966616 L227.149045,147.172428 C227.080118,147.93552 227.321962,148.693875 227.817264,149.267777 C228.312567,149.84168 229.017243,150.18005 229.764297,150.202699 L240.094545,150.537906 L259.852778,79.2460794 L251.562427,70.2625315 C250.833443,69.4518485 249.759942,69.0644508 248.696481,69.2282888 C247.633019,69.3921269 246.717935,70.0858886 246.253465,71.0804366 L246.253465,71.0804366 Z" id="Path" fill="#328DEA" fill-rule="nonzero"></path>
                    <path d="M271.063297,159.944409 L271.332227,159.944409 L271.574264,159.944409 L271.883533,159.944409 L272.528963,159.944409 L272.959251,159.944409 L273.066823,159.944409 L273.389538,160.03828 L273.483663,160.03828 L273.873611,160.212611 L273.873611,160.212611 L260.655725,152.555453 L260.655725,152.555453 L260.359902,152.407942 L260.359902,152.407942 L260.265777,152.407942 L260.104419,152.407942 L259.943056,152.407942 L259.835489,152.407942 L259.835489,152.407942 L259.472435,152.407942 L258.988361,152.407942 L258.813557,152.407942 L258.6522,152.407942 L258.504288,152.407942 L258.262252,152.407942 L258.127787,152.407942 L257.993322,152.407942 L257.576481,152.542043 L257.442017,152.542043 L257.347891,152.542043 C257.094777,152.65384 256.847899,152.779183 256.608335,152.917525 L213.754414,177.578668 C213.438256,177.771859 213.133007,177.982269 212.840053,178.208942 L212.692142,178.316223 C212.409766,178.544194 212.12739,178.785576 211.858461,179.040367 L211.791228,179.040367 L211.67021,179.174468 C211.535745,179.308569 211.40128,179.44267 211.280262,179.590181 L211.145797,179.724282 L211.051672,179.844972 C210.970993,179.925433 210.903761,180.019304 210.823082,180.113174 C210.769659,180.172415 210.720247,180.235134 210.675171,180.300915 L210.554152,180.461836 L210.392795,180.676398 L210.285223,180.823909 C210.21799,180.917779 210.164205,181.01165 210.096972,181.09211 C210.069114,181.154768 210.032933,181.213404 209.9894,181.266441 L209.9894,181.266441 L209.693578,181.762614 L209.693578,181.762614 C209.697992,181.79375 209.697992,181.82535 209.693578,181.856485 L209.491881,182.218557 L209.411202,182.392888 L209.317077,182.567219 L209.236398,182.71473 C209.169165,182.862241 209.115379,182.996342 209.048147,183.130443 C209.042317,183.156948 209.042317,183.184398 209.048147,183.210903 L209.048147,183.210903 C208.967468,183.385234 208.900236,183.559565 208.833003,183.747307 L208.833003,183.841177 L208.833003,184.028918 C208.833003,184.122789 208.765771,184.203249 208.738878,184.29712 L208.671646,184.498271 C208.671646,184.578732 208.671646,184.659192 208.671646,184.739653 C208.671646,184.820113 208.671646,184.846933 208.671646,184.900574 C208.671646,184.954214 208.671646,185.074905 208.671646,185.155365 L208.590967,185.463797 L208.590967,185.571078 L208.590967,185.785639 L208.510288,186.254992 C208.510288,186.254992 208.510288,186.335453 208.510288,186.375683 C208.503762,186.41565 208.503762,186.456407 208.510288,186.496374 C208.46824,186.839014 208.445793,187.183764 208.443056,187.52895 L208.523734,215.770585 C208.355475,217.247296 209.017278,218.696226 210.244883,219.538819 L223.46277,227.209386 C222.253555,226.351538 221.596974,224.914038 221.741621,223.441153 L221.660942,195.199518 C221.663264,194.854317 221.685712,194.509543 221.728175,194.166941 L221.728175,193.91215 C221.743057,193.75388 221.770028,193.596973 221.808853,193.442797 C221.802393,193.335613 221.802393,193.228139 221.808853,193.120955 L221.889532,192.825933 C221.889532,192.691832 221.889532,192.544321 221.997104,192.41022 L222.077783,192.168839 C222.119011,192.00997 222.168379,191.853313 222.225694,191.699486 C222.231435,191.632558 222.231435,191.565263 222.225694,191.498335 L222.494624,190.854651 L222.494624,190.854651 C222.588749,190.6535 222.669428,190.465758 222.763553,190.278017 L222.857679,190.103686 L223.140055,189.580693 L223.140055,189.473412 C223.247626,189.272261 223.382091,189.07111 223.503109,188.869958 L223.624128,188.709037 L223.906504,188.279915 L224.067861,188.065353 L224.336791,187.730101 L224.565381,187.44849 L224.793971,187.193698 C224.914989,187.046187 225.049454,186.912086 225.183919,186.777985 L225.385616,186.590244 C225.642677,186.326889 225.916669,186.080515 226.205851,185.85269 L226.353763,185.745409 C226.648167,185.518376 226.958199,185.312247 227.281569,185.128545 L270.122044,160.453992 C270.358918,160.314622 270.606162,160.193576 270.8616,160.09192 L271.103637,159.998049 L271.063297,159.944409 Z" id="Path" fill="#F9A600" fill-rule="nonzero"></path>
                    <path d="M268.86599,161.62366 C272.090311,159.765658 274.715068,161.25206 274.728391,164.941521 L274.808333,192.891181 C274.588787,196.970249 272.42492,200.699024 268.985903,202.924393 L226.523464,227.343849 C223.312467,229.201851 220.68771,227.715449 220.674386,224.025988 L220.594444,196.076328 C220.813991,191.99726 222.977858,188.268485 226.416875,186.043116 L268.86599,161.62366 Z" id="Path" fill="#FEB512" fill-rule="nonzero"></path>
                    <ellipse id="Oval" fill="#F99C80" fill-rule="nonzero" cx="236.017361" cy="159.420578" rx="7.94513889" ry="7.94765343"></ellipse>
                    <path d="M230.876389,175.783394 L230.876389,165.0701 C230.877377,163.774431 231.54321,162.580704 232.616791,161.949854 L245.320455,154.571073 C246.012846,154.16851 246.855451,154.181407 247.536463,154.604991 C248.217476,155.028574 248.635601,155.799841 248.636111,156.633382 L248.636111,164.748702" id="Path" stroke="#1659A8" stroke-width="1.33" stroke-linecap="round"></path>
                    <path d="M233.520177,279.136849 C243.223024,273.481459 258.913303,273.481459 268.549326,279.136849 C278.185349,284.792239 278.131889,293.983934 268.442407,299.639324 C258.752925,305.294714 243.049282,305.294714 233.399894,299.639324 C223.750506,293.983934 223.81733,284.792239 233.520177,279.136849" id="Path" fill="#E4EDF9" fill-rule="nonzero"></path>
                    <path d="M240.717895,279.850833 C240.717895,279.850833 239.396563,296.180191 241.074655,297.025724 C245.646463,299.311305 261.383527,288.345798 259.731862,284.223824 C258.701224,281.581533 251.473537,284.421996 251.473537,284.421996 L251.698164,278.635379 L240.717895,279.850833 Z" id="Path" fill="#1659A8" fill-rule="nonzero"></path>
                    <g id="Group-5" transform="translate(236.484722, 143.057762)">
                        <path d="M16.4265763,138.838261 C16.4265763,138.838261 8.85652674,143.596967 2.21613235,139.569383 C-4.42426204,135.541799 5.97459557,133.707581 5.97459557,133.707581 L16.825,134.64393 L16.4265763,138.838261 Z" id="Path" fill="#FFFFFF" fill-rule="nonzero"></path>
                        <mask id="mask-14" fill="white">
                            <use xlink:href="#path-13"></use>
                        </mask>
                        <use id="Path" fill="#B8D9F4" fill-rule="nonzero" xlink:href="#path-13"></use>
                    </g>
                    <path d="M261.551819,292.229077 C271.25697,286.571054 286.950974,286.571054 296.589284,292.229077 C306.227595,297.8871 306.174123,307.083076 296.482341,312.727596 C286.790558,318.372115 271.083186,318.399123 261.444875,312.727596 C251.806565,307.056069 251.846669,297.873597 261.551819,292.229077" id="Path" fill="#E4EDF9" fill-rule="nonzero"></path>
                    <path d="M269.626028,287.050542 C269.626028,287.050542 266.751268,302.363439 269.358609,304.212445 C271.965949,306.061452 295.579094,306.413023 297.972499,304.329636 C300.365904,302.246249 280.897762,296.516933 280.897762,296.516933 L282.087778,288.313595 L269.626028,287.050542 Z" id="Path" fill="#1659A8" fill-rule="nonzero"></path>
                    <path d="M280.795929,294.42877 C280.795929,294.42877 273.03272,298.797337 266.618484,294.53007 C260.204248,290.262804 270.586052,288.920578 270.586052,288.920578 L281.351389,290.313454 L280.795929,294.42877 Z" id="Path" fill="#FFFFFF" fill-rule="nonzero"></path>
                    <path d="M290.705681,146.797834 L296.264283,217.483409 C296.371111,218.872273 296.27705,220.269332 295.985023,221.631185 L280.186892,294.530686 L267.247851,294.530686 L268.85692,223.63172 C268.99041,222.394622 268.854289,221.143206 268.457977,219.964073 L250.505556,147.704743 L290.705681,146.797834 Z" id="Path" fill="#B8D9F4" fill-rule="nonzero"></path>
                    <path d="M290.705681,146.797834 L296.264283,217.483409 C296.371111,218.872273 296.27705,220.269332 295.985023,221.631185 L280.186892,294.530686 L267.247851,294.530686 L268.85692,223.63172 C268.99041,222.394622 268.854289,221.143206 268.457977,219.964073 L250.505556,147.704743 L290.705681,146.797834 Z" id="Path" fill="url(#linearGradient-15)" fill-rule="nonzero" opacity="0.8"></path>
                    <path d="M280.682636,161.758123 L285.567083,207.84962 C286.373209,215.394263 286.114019,223.016011 284.797251,230.487301 L273.873611,292.66065" id="Path" stroke="#B8D9F4" stroke-width="0.9975" stroke-linecap="round"></path>
                    <path d="M291.102987,138.882013 L294.4375,157.678953 C294.4375,157.678953 279.232121,167.241351 257.170982,163.826209 C241.312039,161.380967 235.55,152.173745 235.55,152.173745 L240.765178,137.447653 L291.102987,138.882013 Z" id="Path" fill="#1659A8" fill-rule="nonzero"></path>
                    <polygon id="Path" fill="#F99C80" fill-rule="nonzero" points="272.004167 63.0748862 271.867511 71.0613718 257.983333 69.3268677 259.472876 55.166065"></polygon>
                    <path d="M266.189868,35.5768784 C269.117386,35.5768784 278.459985,34.0638358 279.223685,48.3566849 C279.987385,62.6495341 279.401882,65.7972032 272.668592,66.3645941 C267.437245,66.796892 261.722222,60.6231377 261.722222,60.6231377 L266.189868,35.5768784 Z" id="Path" fill="#F99C80" fill-rule="nonzero"></path>
                    <path d="M270.357622,54.8941489 C270.515938,56.2145034 270.344581,57.5521689 269.857801,58.7959229 C268.41237,62.229484 265.197299,63.8031995 261.239251,63.5560871 C257.51085,63.3219807 253.674379,62.1384426 252.688244,50.081961 C251.702109,38.0254794 253.14754,33.6554926 255.579106,33.4604039 C258.010672,33.2653152 260.496272,35.6063796 260.496272,35.6063796 C260.496272,35.6063796 267.872022,28.7522633 277.260568,31.5095169 C286.649113,34.2667705 280.205464,41.7841884 279.138277,42.3824604 C276.191928,44.1369742 272.602684,44.5825593 269.290435,43.6050162 L270.357622,54.8941489 Z" id="Path" fill="#FEB512" fill-rule="nonzero"></path>
                    <ellipse id="Oval" fill="#FEB512" fill-rule="nonzero" cx="269.667361" cy="43.4783394" rx="7.01041667" ry="7.01263538"></ellipse>
                    <ellipse id="Oval" fill="#FEB512" fill-rule="nonzero" cx="263.124306" cy="37.868231" rx="6.07569444" ry="6.07761733"></ellipse>
                    <ellipse id="Oval" fill="#F99C80" fill-rule="nonzero" transform="translate(269.173111, 52.688333) rotate(-63.290000) translate(-269.173111, -52.688333) " cx="269.173111" cy="52.6883328" rx="4.04060014" ry="5.09795418"></ellipse>
                    <path d="M251.744596,68.2892778 C259.928962,69.1434643 270.671779,70.3772892 277.945283,71.3941778 C281.834979,71.9259841 284.894318,75.022661 285.419712,78.9598294 L295.372222,150.819961 C295.372222,150.819961 256.084587,171.157733 235.55,147.511683 L245.837386,73.0483167 C246.180385,70.0886769 248.818234,67.9635406 251.744596,68.2892778 Z" id="Path" fill="#328DEA" fill-rule="nonzero"></path>
                    <path d="M254.919219,69.2416084 C262.554389,70.0500805 271.582642,71.1145687 277.945283,71.9365153 C281.834979,72.4650275 284.894318,75.5425237 285.419712,79.4553054 L295.372222,150.870337 C295.372222,150.870337 256.084587,171.082138 235.55,147.58255 L245.408745,76.7334494 C246.041671,72.0590294 250.256155,68.7390852 254.919219,69.2416084 L254.919219,69.2416084 Z" id="Path" fill="url(#linearGradient-16)" fill-rule="nonzero" opacity="0.8"></path>
                    <rect id="Rectangle" fill="#B8D9F4" fill-rule="nonzero" x="265.461111" y="289.855596" width="16.825" height="3.7400722"></rect>
                    <rect id="Rectangle" fill="#B8D9F4" fill-rule="nonzero" x="237.419444" y="276.765343" width="16.825" height="3.7400722"></rect>
                    <path d="M255.179167,69.1913357 L273.873611,71.3003229 C273.873611,71.3003229 270.616739,73.6888144 263.282264,72.6851398 C257.654389,71.9228553 255.179167,69.1913357 255.179167,69.1913357 Z" id="Path" fill="#1659A8" fill-rule="nonzero"></path>
                    <path d="M277.6125,132.760256 L290.773325,129.967509 L292.475513,139.535254 C293.039537,142.678826 290.973723,145.713341 287.687243,146.568839 L287.687243,146.568839 C285.87423,147.040602 283.93235,146.776422 282.338626,145.841197 C280.744903,144.905971 279.647025,143.386365 279.314689,141.655673 L277.6125,132.760256 Z" id="Path" fill="#1659A8" fill-rule="nonzero"></path>
                    <path d="M317.805556,98.5348149 C320.430913,98.241875 322.373614,95.5672064 323.279333,91.4023653 C324.185052,87.2375242 330.210051,91.5806765 330.800738,97.9489351 C331.156478,100.432043 330.45933,102.948994 328.868631,104.924522 C327.277931,106.900051 324.929646,108.1653 322.360488,108.431089 C317.726883,109.106124 317.805556,98.5348149 317.805556,98.5348149 Z" id="Path" fill="#F99C80" fill-rule="nonzero"></path>
                    <path d="M319.675,100.042622 C319.675,100.042622 318.792769,90.496539 316.36033,90.6999563 C314.331198,90.8888438 315.17562,101.916968 315.17562,101.916968 L319.675,100.042622 Z" id="Path" fill="#F99C80" fill-rule="nonzero"></path>
                    <path d="M281.258885,76.8809491 C281.821909,76.6095322 282.477977,76.6015026 283.047604,76.859057 C283.61723,77.1166113 284.040788,77.6127892 284.2024,78.2118475 C286.312592,85.9443671 296.514089,112.815206 296.514089,112.815206 L313.180568,97.3900932 L326.218056,107.371831 C326.218056,107.371831 298.476433,142.055043 289.215785,136.931084 C280.78846,132.27294 262.656944,85.9443671 262.656944,85.9443671 L281.258885,76.8809491 Z" id="Path" fill="#328DEA" fill-rule="nonzero"></path>
                    <line x1="317.338194" y1="67.3212996" x2="317.338194" y2="41.1407942" id="Path" stroke="#B8D9F4" stroke-width="0.9975" stroke-linecap="round"></line>
                    <line x1="312.197222" y1="69.1913357" x2="301.915278" y2="58.9061372" id="Path" stroke="#B8D9F4" stroke-width="0.9975" stroke-linecap="round"></line>
                    <line x1="311.2625" y1="77.1389892" x2="300.980556" y2="77.1389892" id="Path" stroke="#B8D9F4" stroke-width="0.9975" stroke-linecap="round"></line>
                </g>
            </g>
        </g>
    </g>
</svg>